<svg aria-hidden="true" style="position: absolute; width: 0; height: 0; overflow: hidden;" version="1.1" xmlns="http://www.w3.org/2000/svg" xmlns:xlink="http://www.w3.org/1999/xlink">
<defs>
<symbol id="icon-location" viewBox="0 0 16 32">
<path d="M16 8c0-4.412-3.588-8-8-8s-8 3.588-8 8c0 3.957 2.888 7.252 6.667 7.888v14.779c0 0.736 0.597 1.333 1.333 1.333s1.333-0.597 1.333-1.333v-14.779c3.779-0.636 6.667-3.931 6.667-7.888zM8 13.333c-2.941 0-5.333-2.392-5.333-5.333s2.392-5.333 5.333-5.333c2.941 0 5.333 2.392 5.333 5.333s-2.392 5.333-5.333 5.333z"></path>
</symbol>
<symbol id="icon-e-mail" viewBox="0 0 32 32">
<path fill="#fb5b11" style="fill: var(--color1, #fb5b11)" d="M25.333 1.333h-18.667c-1.767 0.002-3.462 0.705-4.712 1.955s-1.953 2.944-1.955 4.712v16c0.002 1.767 0.705 3.462 1.955 4.712s2.944 1.953 4.712 1.955h18.667c1.767-0.002 3.462-0.705 4.712-1.955s1.953-2.944 1.955-4.712v-16c-0.002-1.767-0.705-3.462-1.955-4.712s-2.944-1.953-4.712-1.955zM6.667 4h18.667c0.798 0.002 1.578 0.242 2.239 0.69s1.172 1.084 1.468 1.826l-10.211 10.212c-0.751 0.748-1.769 1.169-2.829 1.169s-2.078-0.42-2.829-1.169l-10.211-10.212c0.296-0.741 0.808-1.377 1.468-1.826s1.44-0.689 2.239-0.69zM25.333 28h-18.667c-1.061 0-2.078-0.421-2.828-1.171s-1.172-1.768-1.172-2.829v-14l8.619 8.613c1.252 1.248 2.947 1.949 4.715 1.949s3.463-0.701 4.715-1.949l8.619-8.613v14c0 1.061-0.421 2.078-1.171 2.829s-1.768 1.171-2.829 1.171z"></path>
</symbol>
<symbol id="icon-hours" viewBox="0 0 32 32">
<path fill="#fb5b11" style="fill: var(--color1, #fb5b11)" d="M16 32c-8.823 0-16-7.177-16-16s7.177-16 16-16c8.823 0 16 7.177 16 16s-7.177 16-16 16zM16 2.667c-7.352 0-13.333 5.981-13.333 13.333s5.981 13.333 13.333 13.333c7.352 0 13.333-5.981 13.333-13.333s-5.981-13.333-13.333-13.333zM22.667 16c0-0.737-0.596-1.333-1.333-1.333h-4v-6.667c0-0.737-0.597-1.333-1.333-1.333s-1.333 0.596-1.333 1.333v8c0 0.737 0.597 1.333 1.333 1.333h5.333c0.737 0 1.333-0.596 1.333-1.333z"></path>
</symbol>
<symbol id="icon-facebook" viewBox="0 0 16 28">
<path d="M14.984 0.187v4.125h-2.453c-1.922 0-2.281 0.922-2.281 2.25v2.953h4.578l-0.609 4.625h-3.969v11.859h-4.781v-11.859h-3.984v-4.625h3.984v-3.406c0-3.953 2.422-6.109 5.953-6.109 1.687 0 3.141 0.125 3.563 0.187z"></path>
</symbol>
<symbol id="icon-instagram" viewBox="0 0 32 32">
<path d="M16 2.881c4.275 0 4.781 0.019 6.462 0.094 1.563 0.069 2.406 0.331 2.969 0.55 0.744 0.288 1.281 0.638 1.837 1.194 0.563 0.563 0.906 1.094 1.2 1.838 0.219 0.563 0.481 1.412 0.55 2.969 0.075 1.688 0.094 2.194 0.094 6.463s-0.019 4.781-0.094 6.463c-0.069 1.563-0.331 2.406-0.55 2.969-0.288 0.744-0.637 1.281-1.194 1.837-0.563 0.563-1.094 0.906-1.837 1.2-0.563 0.219-1.413 0.481-2.969 0.55-1.688 0.075-2.194 0.094-6.463 0.094s-4.781-0.019-6.463-0.094c-1.563-0.069-2.406-0.331-2.969-0.55-0.744-0.288-1.281-0.637-1.838-1.194-0.563-0.563-0.906-1.094-1.2-1.837-0.219-0.563-0.481-1.413-0.55-2.969-0.075-1.688-0.094-2.194-0.094-6.463s0.019-4.781 0.094-6.463c0.069-1.563 0.331-2.406 0.55-2.969 0.288-0.744 0.638-1.281 1.194-1.838 0.563-0.563 1.094-0.906 1.838-1.2 0.563-0.219 1.412-0.481 2.969-0.55 1.681-0.075 2.188-0.094 6.463-0.094zM16 0c-4.344 0-4.887 0.019-6.594 0.094-1.7 0.075-2.869 0.35-3.881 0.744-1.056 0.412-1.95 0.956-2.837 1.85-0.894 0.888-1.438 1.781-1.85 2.831-0.394 1.019-0.669 2.181-0.744 3.881-0.075 1.713-0.094 2.256-0.094 6.6s0.019 4.887 0.094 6.594c0.075 1.7 0.35 2.869 0.744 3.881 0.413 1.056 0.956 1.95 1.85 2.837 0.887 0.887 1.781 1.438 2.831 1.844 1.019 0.394 2.181 0.669 3.881 0.744 1.706 0.075 2.25 0.094 6.594 0.094s4.888-0.019 6.594-0.094c1.7-0.075 2.869-0.35 3.881-0.744 1.050-0.406 1.944-0.956 2.831-1.844s1.438-1.781 1.844-2.831c0.394-1.019 0.669-2.181 0.744-3.881 0.075-1.706 0.094-2.25 0.094-6.594s-0.019-4.887-0.094-6.594c-0.075-1.7-0.35-2.869-0.744-3.881-0.394-1.063-0.938-1.956-1.831-2.844-0.887-0.887-1.781-1.438-2.831-1.844-1.019-0.394-2.181-0.669-3.881-0.744-1.712-0.081-2.256-0.1-6.6-0.1v0z"></path>
<path d="M16 7.781c-4.537 0-8.219 3.681-8.219 8.219s3.681 8.219 8.219 8.219 8.219-3.681 8.219-8.219c0-4.537-3.681-8.219-8.219-8.219zM16 21.331c-2.944 0-5.331-2.387-5.331-5.331s2.387-5.331 5.331-5.331c2.944 0 5.331 2.387 5.331 5.331s-2.387 5.331-5.331 5.331z"></path>
<path d="M26.462 7.456c0 1.060-0.859 1.919-1.919 1.919s-1.919-0.859-1.919-1.919c0-1.060 0.859-1.919 1.919-1.919s1.919 0.859 1.919 1.919z"></path>
</symbol>
<symbol id="icon-x" viewBox="0 0 32 32">
<path d="M24.325 3h4.411l-9.636 11.013 11.336 14.987h-8.876l-6.952-9.089-7.955 9.089h-4.413l10.307-11.78-10.875-14.22h9.101l6.284 8.308zM22.777 26.36h2.444l-15.776-20.859h-2.623z"></path>
</symbol>
<symbol id="icon-linkedin" viewBox="0 0 32 32">
<path d="M12 12h5.535v2.837h0.079c0.77-1.381 2.655-2.837 5.464-2.837 5.842 0 6.922 3.637 6.922 8.367v9.633h-5.769v-8.54c0-2.037-0.042-4.657-3.001-4.657-3.005 0-3.463 2.218-3.463 4.509v8.688h-5.767v-18z"></path>
<path d="M2 12h6v18h-6v-18z"></path>
<path d="M8 7c0 1.657-1.343 3-3 3s-3-1.343-3-3c0-1.657 1.343-3 3-3s3 1.343 3 3z"></path>
</symbol>
<symbol id="icon-phone" viewBox="0 0 32 32">
<path d="M17.281 1.335c0-0.354 0.14-0.693 0.39-0.943s0.589-0.391 0.943-0.391c3.535 0.004 6.924 1.41 9.424 3.91s3.906 5.889 3.909 9.424c0 0.354-0.14 0.693-0.39 0.943s-0.589 0.391-0.943 0.391-0.693-0.14-0.943-0.391c-0.25-0.25-0.39-0.589-0.39-0.943-0.003-2.828-1.128-5.539-3.128-7.539s-4.711-3.125-7.539-3.128c-0.354 0-0.693-0.14-0.943-0.391s-0.39-0.589-0.39-0.943zM18.615 8.002c1.415 0 2.771 0.562 3.771 1.562s1.562 2.357 1.562 3.771c0 0.354 0.14 0.693 0.391 0.943s0.589 0.391 0.943 0.391c0.354 0 0.693-0.14 0.943-0.391s0.391-0.589 0.391-0.943c-0.002-2.121-0.846-4.155-2.345-5.655s-3.533-2.343-5.655-2.345c-0.354 0-0.693 0.14-0.943 0.391s-0.39 0.589-0.39 0.943 0.14 0.693 0.39 0.943c0.25 0.25 0.589 0.391 0.943 0.391zM30.739 22.321c0.773 0.775 1.207 1.824 1.207 2.919s-0.434 2.144-1.207 2.919l-1.213 1.399c-10.92 10.455-37.493-16.112-27.2-27.067l1.533-1.333c0.776-0.751 1.816-1.167 2.896-1.157s2.112 0.445 2.874 1.21c0.041 0.041 2.512 3.251 2.512 3.251 0.733 0.77 1.141 1.793 1.139 2.857s-0.413 2.085-1.149 2.853l-1.544 1.941c0.854 2.076 2.111 3.963 3.697 5.552s3.47 2.849 5.545 3.708l1.953-1.553c0.768-0.735 1.789-1.146 2.852-1.148s2.086 0.407 2.856 1.14c0 0 3.208 2.469 3.249 2.511zM28.904 24.26c0 0-3.191-2.455-3.232-2.496-0.275-0.272-0.646-0.425-1.033-0.425s-0.758 0.153-1.033 0.425c-0.036 0.037-2.725 2.18-2.725 2.18-0.181 0.144-0.397 0.239-0.626 0.274s-0.463 0.011-0.68-0.072c-2.687-1-5.128-2.567-7.157-4.593s-3.599-4.465-4.604-7.151c-0.089-0.219-0.118-0.459-0.084-0.693s0.13-0.455 0.277-0.64c0 0 2.143-2.691 2.179-2.725 0.272-0.275 0.425-0.646 0.425-1.033s-0.153-0.758-0.425-1.033c-0.041-0.040-2.496-3.233-2.496-3.233-0.279-0.25-0.643-0.384-1.017-0.374s-0.731 0.162-0.996 0.426l-1.533 1.333c-7.523 9.045 15.505 30.796 23.432 23.305l1.215-1.4c0.285-0.264 0.456-0.628 0.477-1.015s-0.109-0.768-0.364-1.061z"></path>
</symbol>
<symbol id="icon-arrow-up-right" viewBox="0 0 32 32">
<path d="M7.414 27.414l16.586-16.586v7.172c0 1.105 0.895 2 2 2s2-0.895 2-2v-12c0-0.809-0.487-1.538-1.235-1.848-0.248-0.103-0.508-0.151-0.765-0.151v-0.001h-12c-1.105 0-2 0.895-2 2s0.895 2 2 2h7.172l-16.586 16.586c-0.391 0.39-0.586 0.902-0.586 1.414s0.195 1.024 0.586 1.414c0.781 0.781 2.047 0.781 2.828 0z"></path>
</symbol>
<symbol id="icon-arrow-right" viewBox="0 0 96 32">
  <path d="M32.586 27.414l-10-10c-0.781-0.781-0.781-2.047 0-2.828l10-10c0.781-0.781 2.047-0.781 2.828 0s0.781 2.047 0 2.828l-6.586 6.586H94c1.105 0 2 0.895 2 2s-0.895 2-2 2H28.828l6.586 6.586c0.39 0.39 0.586 0.902 0.586 1.414s-0.195 1.024-0.586 1.414c-0.781 0.781-2.047 0.781-2.828 0z"/>
</symbol>
<symbol id="icon-arrow-left" viewBox="0 0 96 32">
  <path d="M63.414 27.414l10-10c0.781-0.781 0.781-2.047 0-2.828l-10-10c-0.781-0.781-2.047-0.781-2.828 0s-0.781 2.047 0 2.828l6.586 6.586H2c-1.105 0-2 0.895-2 2s0.895 2 2 2h65.172l-6.586 6.586c-0.39 0.39-0.586 0.902-0.586 1.414s0.195 1.024 0.586 1.414c0.781 0.781 2.047 0.781 2.828 0z"/>
</symbol>
<symbol id="icon-plus" viewBox="0 0 32 32">
<path stroke-linejoin="miter" stroke-linecap="round" stroke-miterlimit="4" stroke-width="3.2" d="M16 1.6v28.8M30.4 17.2h-28.8"></path>
</symbol>
<symbol id="icon-play" viewBox="0 0 22 32">
<path d="M21.677 16l-21.677 16v-32l21.677 16z"></path>
</symbol>
<symbol id="icon-quote" viewBox="0 0 45 32">
<path d="M30.899 0h12.073c0.855 0 1.548 0.693 1.548 1.548v15.843l-10.435 14.609v-14.261h-6.799c-0.855 0-1.548-0.693-1.548-1.548v-11.029c0-2.85 2.311-5.161 5.161-5.161z"></path>
<path d="M5.161 0h12.073c0.855 0 1.548 0.693 1.548 1.548v15.843l-10.435 14.609v-14.261h-6.799c-0.855 0-1.548-0.693-1.548-1.548v-11.029c0-2.85 2.311-5.161 5.161-5.161z"></path>
</symbol>
<symbol id="icon-star" viewBox="0 0 35 32">
<path stroke-linejoin="miter" stroke-linecap="butt" stroke-miterlimit="4" stroke-width="1.4545" d="M17.455 2.353l3.39 10.435h10.971l-8.876 6.449 0.163 0.503 3.227 9.932-8.876-6.449-8.876 6.449 3.39-10.435-8.876-6.449h10.972l3.39-10.435z"></path>
</symbol>
<symbol id="icon-rectangle" viewBox="0 0 32 32">
<path d="M0 0h32l-32 32v-32z"></path>
</symbol>
</defs>
</svg>
